<svg width="25" height="24" viewBox="0 0 25 24" fill="none" xmlns="http://www.w3.org/2000/svg">
<path d="M6.11287 2.3999C4.47647 2.3999 3.1499 3.72646 3.1499 5.36286M14.8832 2.3999H10.6166M22.3499 5.36287C22.3499 3.72647 21.0233 2.3999 19.3869 2.3999M3.1499 9.86657V14.1332M22.3499 14.1332V9.86657M3.1499 18.6369C3.1499 20.2733 4.47647 21.5999 6.11286 21.5999M19.3869 21.5999C21.0233 21.5999 22.3499 20.2733 22.3499 18.6369M10.6166 21.5999H14.8832M3.1499 11.9999H10.6166C11.7948 11.9999 12.7499 12.955 12.7499 14.1332V21.5999H6.3499C4.58259 21.5999 3.1499 20.1672 3.1499 18.3999V11.9999Z" stroke="black" stroke-width="2" stroke-linecap="round"/>
</svg>
